<?xml version="1.0" encoding="utf-8"?>
<!-- Generator: Adobe Illustrator 23.0.4, SVG Export Plug-In . SVG Version: 6.00 Build 0)  -->
<svg version="1.1" id="Layer_1" xmlns="http://www.w3.org/2000/svg" xmlns:xlink="http://www.w3.org/1999/xlink" x="0px" y="0px"
	 viewBox="0 0 138.6 92.4" style="enable-background:new 0 0 138.6 92.4;" xml:space="preserve">
<style type="text/css">
	.st0{fill-rule:evenodd;clip-rule:evenodd;fill:#689E3B;}
	.st1{fill-rule:evenodd;clip-rule:evenodd;fill:#E8D544;}
	.st2{fill-rule:evenodd;clip-rule:evenodd;fill:#ECEBEB;}
	.st3{fill-rule:evenodd;clip-rule:evenodd;fill:#1F3086;}
	.st4{fill-rule:evenodd;clip-rule:evenodd;fill:#5D903A;}
	.st5{fill:#EEEDEC;}
	.st6{fill:#C1251B;}
	.st7{fill:#BF2422;}
	.st8{fill:#324B96;}
</style>
<g>
	<g>
		<rect class="st5" width="138.6" height="92.4"/>
		<path class="st7" d="M0,85.3h138.6v7.1H0V85.3z M0,0h138.6v7.1H0V0z M0,14.2h138.6v7.1H0V14.2z M0,28.4h138.6v7.1H0V28.4z M0,42.7
			h138.6v7.1H0V42.7z M0,56.9h138.6V64H0V56.9z M0,71.1h138.6v7.1H0V71.1z"/>
		<rect class="st8" width="70.2" height="49.8"/>
		<path class="st5" d="M64.9,14l-0.6-2l-0.6,2h-2.1l1.7,1.2l-0.6,2l1.7-1.2l1.7,1.2l-0.6-2l1.7-1.2H64.9z M7,5.3L8.7,4H6.6L6,2.1
			L5.4,4H3.3L5,5.3l-0.6,2L6,6l1.7,1.2L7,5.3z M18.7,5.3L20.4,4h-2.1l-0.6-2L17,4h-2.1l1.7,1.2l-0.6,2L17.7,6l1.7,1.2L18.7,5.3z
			 M30.3,5.3L32,4h-2.1l-0.6-2l-0.6,2h-2.1l1.7,1.2l-0.6,2L29.3,6L31,7.2L30.3,5.3z M42,5.3L43.7,4h-2.1l-0.6-2l-0.6,2h-2.1l1.7,1.2
			l-0.6,2L40.9,6l1.7,1.2L42,5.3z M13.2,40l1.7-1.2h-2.1l-0.6-2l-0.6,2H9.4l1.7,1.2l-0.6,2l1.7-1.2l1.7,1.2L13.2,40z M12.9,30.3
			l1.7-1.2h-2.1l-0.6-2l-0.6,2H9.2l1.7,1.2l-0.6,2l1.7-1.2l1.7,1.2L12.9,30.3z M13,20.6l1.7-1.2h-2.1l-0.6-2l-0.6,2H9.3l1.7,1.2
			l-0.6,2l1.7-1.2l1.7,1.2L13,20.6z M53.6,5.3L55.3,4h-2.1l-0.6-2l-0.6,2h-2.1l1.7,1.2l-0.6,2L52.6,6l1.7,1.2L53.6,5.3z M65.3,5.3
			L66.9,4h-2.1l-0.6-2l-0.6,2h-2.1l1.7,1.2l-0.6,2L64.2,6l1.7,1.2L65.3,5.3z M24.7,20.6l1.7-1.2h-2.1l-0.6-2l-0.6,2h-2.1l1.7,1.2
			l-0.6,2l1.7-1.2l1.7,1.2L24.7,20.6z M24.6,30.3l1.7-1.2h-2.1l-0.6-2l-0.6,2h-2.1l1.7,1.2l-0.6,2l1.7-1.2l1.7,1.2L24.6,30.3z
			 M24.8,40l1.7-1.2h-2.1l-0.6-2l-0.6,2h-2.1l1.7,1.2l-0.6,2l1.7-1.2l1.7,1.2L24.8,40z M36.5,40l1.7-1.2h-2.1l-0.6-2l-0.6,2h-2.1
			l1.7,1.2l-0.6,2l1.7-1.2l1.7,1.2L36.5,40z M36.2,30.3l1.7-1.2h-2.1l-0.6-2l-0.6,2h-2.1l1.7,1.2l-0.6,2l1.7-1.2l1.7,1.2L36.2,30.3z
			 M36.3,20.6l1.7-1.2h-2.1l-0.6-2l-0.6,2h-2.1l1.7,1.2l-0.6,2l1.7-1.2l1.7,1.2L36.3,20.6z M12.9,10.2L14.5,9h-2.1l-0.6-2l-0.6,2
			H9.1l1.7,1.2l-0.6,2l1.7-1.2l1.7,1.2L12.9,10.2z M24.5,10.2L26.2,9h-2.1l-0.6-2l-0.6,2h-2.1l1.7,1.2l-0.6,2l1.7-1.2l1.7,1.2
			L24.5,10.2z M47.9,20.6l1.7-1.2h-2.1l-0.6-2l-0.6,2h-2.1l1.7,1.2l-0.6,2l1.7-1.2l1.7,1.2L47.9,20.6z M47.9,30.3l1.7-1.2h-2.1
			l-0.6-2l-0.6,2h-2.1l1.7,1.2l-0.6,2l1.7-1.2l1.7,1.2L47.9,30.3z M48.1,40l1.7-1.2h-2.1l-0.6-2l-0.6,2h-2.1L46,40l-0.6,2l1.7-1.2
			l1.7,1.2L48.1,40z M59.8,40l1.7-1.2h-2.1l-0.6-2l-0.6,2H56l1.7,1.2l-0.6,2l1.7-1.2l1.7,1.2L59.8,40z M59.5,30.3l1.7-1.2h-2.1
			l-0.6-2l-0.6,2h-2.1l1.7,1.2l-0.6,2l1.7-1.2l1.7,1.2L59.5,30.3z M59.6,20.6l1.7-1.2h-2.1l-0.6-2l-0.6,2h-2.1l1.7,1.2l-0.6,2
			l1.7-1.2l1.7,1.2L59.6,20.6z M36.2,10.2L37.8,9h-2.1l-0.6-2l-0.6,2h-2.1l1.7,1.2l-0.6,2l1.7-1.2l1.7,1.2L36.2,10.2z M47.8,10.2
			L49.5,9h-2.1l-0.6-2l-0.6,2h-2.1l1.7,1.2l-0.6,2l1.7-1.2l1.7,1.2L47.8,10.2z M59.4,10.2L61.1,9h-2.1l-0.6-2l-0.6,2h-2.1l1.7,1.2
			l-0.6,2l1.7-1.2l1.7,1.2L59.4,10.2z M7.4,44.9L9,43.7H7l-0.6-2l-0.6,2H3.6l1.7,1.2l-0.6,2l1.7-1.2L8,46.9L7.4,44.9z M7.1,35.2
			L8.8,34H6.7l-0.6-2l-0.6,2H3.4l1.7,1.2l-0.6,2L6.1,36l1.7,1.2L7.1,35.2z M7.2,25.6l1.7-1.2H6.8l-0.6-2l-0.6,2H3.4l1.7,1.2l-0.6,2
			l1.7-1.2l1.7,1.2L7.2,25.6z M18.8,25.6l1.7-1.2h-2.1l-0.6-2l-0.6,2h-2.1l1.7,1.2l-0.6,2l1.7-1.2l1.7,1.2L18.8,25.6z M18.8,35.2
			l1.7-1.2h-2.1l-0.6-2l-0.6,2H15l1.7,1.2l-0.6,2l1.7-1.2l1.7,1.2L18.8,35.2z M19,44.9l1.7-1.2h-2.1l-0.6-2l-0.6,2h-2.1l1.7,1.2
			l-0.6,2l1.7-1.2l1.7,1.2L19,44.9z M30.6,44.9l1.7-1.2h-2.1l-0.6-2l-0.6,2h-2.1l1.7,1.2l-0.6,2l1.7-1.2l1.7,1.2L30.6,44.9z
			 M30.4,35.2l1.7-1.2H30l-0.6-2l-0.6,2h-2.1l1.7,1.2l-0.6,2l1.7-1.2l1.7,1.2L30.4,35.2z M30.5,25.6l1.7-1.2h-2.1l-0.6-2l-0.6,2
			h-2.1l1.7,1.2l-0.6,2l1.7-1.2l1.7,1.2L30.5,25.6z M7,15.2L8.7,14H6.6l-0.6-2l-0.6,2H3.3L5,15.2l-0.6,2L6,16l1.7,1.2L7,15.2z
			 M18.7,15.2l1.7-1.2h-2.1l-0.6-2L17,14h-2.1l1.7,1.2l-0.6,2l1.7-1.2l1.7,1.2L18.7,15.2z M42.1,25.6l1.7-1.2h-2.1l-0.6-2l-0.6,2
			h-2.1l1.7,1.2l-0.6,2l1.7-1.2l1.7,1.2L42.1,25.6z M42.1,35.2l1.7-1.2h-2.1l-0.6-2l-0.6,2h-2.1l1.7,1.2l-0.6,2L41,36l1.7,1.2
			L42.1,35.2z M42.3,44.9l1.7-1.2h-2.1l-0.6-2l-0.6,2h-2.1l1.7,1.2l-0.6,2l1.7-1.2l1.7,1.2L42.3,44.9z M53.9,44.9l1.7-1.2h-2.1
			l-0.6-2l-0.6,2h-2.1l1.7,1.2l-0.6,2l1.7-1.2l1.7,1.2L53.9,44.9z M65.6,44.9l1.7-1.2h-2.1l-0.6-2l-0.6,2h-2.1l1.7,1.2l-0.6,2
			l1.7-1.2l1.7,1.2L65.6,44.9z M53.7,35.2l1.7-1.2h-2.1l-0.6-2L52,34H50l1.7,1.2l-0.6,2l1.7-1.2l1.7,1.2L53.7,35.2z M65.3,35.2
			L67,34H65l-0.6-2l-0.6,2h-2.1l1.7,1.2l-0.6,2l1.7-1.2l1.7,1.2L65.3,35.2z M53.8,25.6l1.7-1.2h-2.1l-0.6-2l-0.6,2H50l1.7,1.2
			l-0.6,2l1.7-1.2l1.7,1.2L53.8,25.6z M65.4,25.6l1.7-1.2H65l-0.6-2l-0.6,2h-2.1l1.7,1.2l-0.6,2l1.7-1.2l1.7,1.2L65.4,25.6z
			 M30.3,15.2L32,14h-2.1l-0.6-2l-0.6,2h-2.1l1.7,1.2l-0.6,2l1.7-1.2l1.7,1.2L30.3,15.2z M42,15.2l1.7-1.2h-2.1l-0.6-2l-0.6,2h-2.1
			l1.7,1.2l-0.6,2l1.7-1.2l1.7,1.2L42,15.2z M53.6,15.2l1.7-1.2h-2.1l-0.6-2l-0.6,2h-2.1l1.7,1.2l-0.6,2l1.7-1.2l1.7,1.2L53.6,15.2z
			"/>
	</g>
</g>
</svg>
