<?xml version="1.0" encoding="utf-8"?>
<!-- Generator: Adobe Illustrator 23.0.4, SVG Export Plug-In . SVG Version: 6.00 Build 0)  -->
<svg version="1.1" id="Layer_1" xmlns="http://www.w3.org/2000/svg" xmlns:xlink="http://www.w3.org/1999/xlink" x="0px" y="0px"
	 viewBox="0 0 138.6 92.4" style="enable-background:new 0 0 138.6 92.4;" xml:space="preserve">
<style type="text/css">
	.st0{fill-rule:evenodd;clip-rule:evenodd;fill:#689E3B;}
	.st1{fill-rule:evenodd;clip-rule:evenodd;fill:#E8D544;}
	.st2{fill-rule:evenodd;clip-rule:evenodd;fill:#ECEBEB;}
	.st3{fill-rule:evenodd;clip-rule:evenodd;fill:#1F3086;}
	.st4{fill-rule:evenodd;clip-rule:evenodd;fill:#5D903A;}
	.st5{fill:#EEEDEC;}
	.st6{fill:#C1251B;}
	.st7{fill:#BF2422;}
	.st8{fill:#324B96;}
</style>
<g>
	<g>
		<rect class="st0" width="138.6" height="92.4"/>
		<polygon class="st1" points="12.3,46.1 69.2,10.8 126.4,46.1 69.3,81.2 		"/>
		<path class="st2" d="M69.2,70c13.2,0,23.9-10.5,23.9-23.3c0-12.8-10.7-23.3-23.9-23.3c-13.2,0-23.9,10.5-23.9,23.3
			C45.3,59.5,56,70,69.2,70z"/>
		<path class="st3" d="M69.2,23.4c12.9,0,23.5,10,23.9,22.5c-9.9-5.9-21.6-9.3-34-9.3c-4.1,0-8.1,0.4-12,1.1
			C50.7,29.3,59.2,23.4,69.2,23.4z M92.5,51.7c-9.6-6.2-21.1-9.9-33.4-9.9c-4.7,0-9.2,0.5-13.6,1.5c-0.2,1.1-0.3,2.2-0.3,3.4
			C45.3,59.5,56,70,69.2,70C80.6,70,90.2,62.1,92.5,51.7z"/>
		<path class="st4" d="M51.6,39.8c0,0.4-0.1,0.7-0.3,1c-0.2,0.3-0.5,0.4-0.8,0.4c-0.3,0-0.6-0.1-0.8-0.3c-0.2-0.2-0.4-0.5-0.4-0.8
			c0-0.4,0.1-0.7,0.3-1c0.2-0.3,0.5-0.4,0.8-0.4c0.3,0,0.6,0.1,0.8,0.3C51.5,39.2,51.6,39.5,51.6,39.8z M51.1,39.9
			c0-0.3-0.1-0.5-0.2-0.6c-0.1-0.1-0.3-0.2-0.5-0.2c-0.2,0-0.3,0.1-0.4,0.3c-0.1,0.2-0.2,0.4-0.1,0.6c0,0.3,0.1,0.5,0.2,0.6
			c0.1,0.2,0.3,0.2,0.5,0.2c0.2,0,0.3-0.1,0.4-0.3C51.1,40.3,51.1,40.1,51.1,39.9z M54.1,40.8l-0.5,0.1c-0.2-0.4-0.3-0.7-0.4-0.8
			c-0.1-0.1-0.2-0.1-0.4-0.1c-0.1,0-0.1,0-0.2,0c0,0.3,0.1,0.6,0.1,1L52.1,41c0-0.4-0.1-0.8-0.1-1.3c0-0.4-0.1-0.8-0.1-1.1l0.3,0
			c0,0,0.1,0,0.2,0c0.1,0,0.2,0,0.3,0c0.6-0.1,0.9,0.1,0.9,0.5c0,0.3-0.1,0.5-0.4,0.7l0,0c0.1,0,0.2,0.1,0.4,0.3
			C53.7,40.1,53.9,40.4,54.1,40.8z M53.2,39.1c0-0.2-0.2-0.3-0.5-0.3c-0.1,0-0.2,0-0.3,0.1c0,0.2,0.1,0.4,0.1,0.7c0.1,0,0.1,0,0.2,0
			C53,39.6,53.2,39.4,53.2,39.1z M56.3,39.3c0,0.3-0.1,0.7-0.3,0.9c-0.2,0.3-0.5,0.4-0.9,0.5c-0.2,0-0.4,0-0.7,0
			c0-0.4,0-0.8-0.1-1.3c0-0.4-0.1-0.8-0.1-1.1l0.3,0c0.1,0,0.1,0,0.2,0c0.1,0,0.2,0,0.2,0c0.4,0,0.8,0.1,1,0.3
			C56.1,38.8,56.2,39,56.3,39.3z M55.8,39.5c0-0.2-0.1-0.4-0.2-0.6c-0.1-0.2-0.4-0.2-0.6-0.2c-0.1,0-0.1,0-0.2,0
			c0,0.2,0.1,0.5,0.1,0.8c0,0.3,0,0.6,0.1,0.9c0.1,0,0.2,0,0.2,0c0.3,0,0.4-0.1,0.6-0.3C55.7,39.9,55.8,39.7,55.8,39.5z M58.3,40.2
			l0,0.4l-1.6,0.1c0-0.4,0-0.8,0-1.3c0-0.4,0-0.8-0.1-1.1l1.5-0.1l0,0.4c-0.4,0-0.7,0-1,0c0,0.2,0,0.4,0,0.6c0.3,0,0.5,0,0.8-0.1
			l0,0.4c-0.3,0-0.6,0-0.8,0c0,0.2,0,0.5,0,0.7C57.6,40.2,57.9,40.2,58.3,40.2z M61.4,40.6l-0.5,0c0-0.2,0-0.6,0-1.1
			c0-0.5,0-0.8,0-0.9h0c0,0.1,0,0.2-0.1,0.4c-0.1,0.2-0.1,0.5-0.3,0.9c-0.1,0.4-0.2,0.6-0.2,0.7l-0.4,0c0-0.1-0.1-0.3-0.2-0.7
			c-0.1-0.4-0.2-0.7-0.3-0.8c0-0.2-0.1-0.3-0.1-0.5h0c0,0.2,0,0.5,0,1c0,0.5,0,0.8,0,1l-0.5,0c0,0,0-0.4,0.1-1.1
			c0.1-0.7,0.1-1.1,0.1-1.3l0.7,0c0,0.1,0.1,0.4,0.2,0.9c0.2,0.5,0.2,0.8,0.2,0.9h0c0-0.1,0.1-0.4,0.3-0.9c0.2-0.5,0.3-0.8,0.3-0.9
			l0.7,0c0,0.3,0,0.7,0.1,1.4C61.4,40.2,61.4,40.5,61.4,40.6z M66.9,40.6l0,0.4l-1.6-0.1c0-0.4,0.1-0.8,0.1-1.3
			c0-0.4,0.1-0.8,0.1-1.1l1.5,0.1L66.9,39c-0.4,0-0.7-0.1-1-0.1c0,0.2,0,0.4,0,0.6c0.3,0,0.5,0,0.8,0l0,0.4c-0.3,0-0.6-0.1-0.8-0.1
			c0,0.2,0,0.5,0,0.7C66.2,40.5,66.5,40.5,66.9,40.6z M72.3,39.9c-0.1,0.3-0.2,0.5-0.4,0.6c-0.2,0.1-0.5,0.1-0.8,0.1
			c-0.1,0-0.1,0-0.1,0c0,0.2-0.1,0.5-0.1,0.9l-0.5-0.1c0.1-0.3,0.2-0.8,0.2-1.2c0.1-0.4,0.1-0.8,0.2-1.1l0.3,0.1c0,0,0.1,0,0.3,0
			c0.1,0,0.2,0,0.3,0.1c0.2,0,0.4,0.1,0.5,0.3C72.3,39.5,72.4,39.7,72.3,39.9z M71.9,39.9c0-0.3-0.1-0.4-0.4-0.5c-0.1,0-0.2,0-0.3,0
			c0,0.2-0.1,0.5-0.1,0.8c0,0,0.1,0,0.1,0C71.6,40.3,71.8,40.2,71.9,39.9z M74.2,42.1c-0.1-0.4-0.1-0.8-0.2-0.9
			c-0.1-0.2-0.1-0.3-0.3-0.4l0,0c0.3,0,0.5-0.2,0.6-0.5c0.1-0.4-0.1-0.6-0.7-0.8c-0.1,0-0.2,0-0.3-0.1c-0.1,0-0.2,0-0.2,0l-0.3-0.1
			c-0.1,0.3-0.1,0.7-0.2,1.1c-0.1,0.5-0.2,0.9-0.3,1.2l0.5,0.1c0.1-0.3,0.1-0.6,0.2-0.9c0.1,0,0.1,0,0.2,0c0.2,0,0.3,0.1,0.3,0.2
			c0.1,0.1,0.1,0.4,0.1,0.9L74.2,42.1z M73.9,40.3c-0.1,0.3-0.3,0.4-0.7,0.3c0,0-0.1,0-0.2,0c0.1-0.3,0.1-0.5,0.1-0.7
			c0.1,0,0.2,0,0.3,0C73.8,39.9,74,40.1,73.9,40.3z M76.9,41.5c-0.1,0.4-0.3,0.6-0.6,0.8c-0.3,0.2-0.6,0.2-0.9,0.2
			c-0.3-0.1-0.5-0.3-0.7-0.5c-0.2-0.3-0.2-0.6-0.1-0.9c0.1-0.4,0.3-0.6,0.6-0.8c0.3-0.2,0.6-0.2,0.9-0.2c0.3,0.1,0.5,0.3,0.7,0.5
			C77,40.8,77,41.1,76.9,41.5z M76.4,41.4c0.1-0.2,0-0.5,0-0.7c-0.1-0.2-0.2-0.3-0.4-0.4c-0.2,0-0.3,0-0.5,0.1
			c-0.2,0.1-0.3,0.3-0.3,0.5c-0.1,0.2,0,0.5,0,0.7c0.1,0.2,0.2,0.3,0.4,0.4c0.2,0,0.3,0,0.5-0.1C76.3,41.8,76.4,41.7,76.4,41.4z
			 M78.9,43.4c-0.3,0-0.5-0.1-0.7-0.1c-0.4-0.1-0.7-0.3-0.8-0.6c-0.1-0.3-0.2-0.6-0.1-0.9c0.1-0.3,0.3-0.6,0.6-0.8
			c0.3-0.2,0.7-0.2,1.1-0.1c0.2,0.1,0.3,0.1,0.5,0.2l-0.2,0.4c-0.2-0.1-0.3-0.2-0.5-0.2c-0.2-0.1-0.5-0.1-0.6,0.1
			c-0.2,0.1-0.3,0.3-0.4,0.5c-0.1,0.2-0.1,0.4,0,0.7c0.1,0.2,0.2,0.4,0.5,0.4c0.1,0,0.1,0,0.2,0.1c0-0.1,0.1-0.3,0.1-0.4
			c0-0.1,0.1-0.3,0.1-0.4l0.5,0.2c-0.1,0.2-0.1,0.4-0.2,0.5C79,43,79,43.1,78.9,43.4z M81.1,44.3c0-0.5,0-0.8-0.1-1
			c0-0.2-0.1-0.3-0.2-0.4l0,0c0.3,0,0.6-0.2,0.7-0.4c0.1-0.4-0.1-0.6-0.6-0.8c-0.1,0-0.2-0.1-0.3-0.1c-0.1,0-0.2-0.1-0.2-0.1
			l-0.3-0.1c-0.1,0.3-0.2,0.7-0.4,1.1c-0.2,0.4-0.3,0.8-0.4,1.2l0.5,0.2c0.1-0.3,0.2-0.6,0.3-0.9c0.1,0,0.1,0,0.2,0.1
			c0.2,0.1,0.3,0.1,0.3,0.3c0,0.1,0.1,0.4,0,0.9L81.1,44.3z M81.1,42.4c-0.1,0.3-0.3,0.3-0.7,0.2c0,0-0.1,0-0.2-0.1
			c0.1-0.3,0.2-0.5,0.2-0.7c0.1,0,0.2,0,0.3,0.1C81,42,81.1,42.2,81.1,42.4z M83,44.6L82.9,45l-1.5-0.6c0.1-0.3,0.3-0.7,0.5-1.2
			c0.2-0.4,0.3-0.8,0.4-1.1l1.4,0.5l-0.2,0.4c-0.3-0.2-0.6-0.3-0.9-0.4c-0.1,0.2-0.1,0.4-0.2,0.6c0.2,0.1,0.5,0.2,0.8,0.3L83,43.9
			c-0.3-0.1-0.5-0.2-0.8-0.3c-0.1,0.2-0.2,0.5-0.2,0.7C82.3,44.4,82.7,44.5,83,44.6z M85,45.2c0.1-0.2,0.1-0.4,0-0.5
			c-0.1-0.1-0.2-0.3-0.3-0.4c-0.2-0.1-0.3-0.3-0.3-0.3c0-0.1-0.1-0.1,0-0.2c0.1-0.1,0.2-0.2,0.5-0.1c0.2,0.1,0.3,0.2,0.5,0.3
			l0.2-0.4c-0.1-0.1-0.3-0.2-0.5-0.3c-0.3-0.1-0.5-0.1-0.7-0.1c-0.2,0.1-0.3,0.2-0.4,0.4c-0.1,0.2-0.1,0.3,0,0.5
			c0.1,0.1,0.2,0.3,0.3,0.4c0.2,0.2,0.3,0.3,0.3,0.4c0.1,0.1,0.1,0.2,0,0.3c0,0.1-0.1,0.1-0.2,0.1s-0.2,0-0.4-0.1
			c-0.2-0.1-0.3-0.2-0.5-0.3l-0.2,0.4c0.2,0.1,0.4,0.2,0.6,0.3C84.4,45.7,84.8,45.6,85,45.2z M86.8,46c-0.2,0.4-0.6,0.5-1.2,0.3
			c-0.2-0.1-0.4-0.2-0.6-0.3l0.2-0.3c0.2,0.1,0.3,0.2,0.5,0.3c0.2,0.1,0.3,0.1,0.4,0.1c0.1,0,0.2,0,0.2-0.1c0-0.1,0-0.2,0-0.3
			c0-0.1-0.1-0.2-0.3-0.4c-0.1-0.2-0.2-0.3-0.3-0.4c-0.1-0.2-0.1-0.3,0-0.5c0.1-0.2,0.2-0.3,0.4-0.4c0.2,0,0.4,0,0.7,0.1
			c0.2,0.1,0.4,0.2,0.5,0.3l-0.2,0.4c-0.1-0.1-0.3-0.2-0.5-0.3c-0.3-0.1-0.4-0.1-0.5,0c0,0.1,0,0.2,0,0.2c0,0.1,0.1,0.2,0.3,0.3
			c0.2,0.2,0.3,0.3,0.3,0.4C86.9,45.6,86.9,45.8,86.8,46z M89.4,46.7c0.2-0.3,0.2-0.6,0.1-0.9c-0.1-0.3-0.3-0.5-0.6-0.7
			c-0.3-0.2-0.6-0.2-0.9-0.1c-0.3,0.1-0.6,0.3-0.7,0.7c-0.2,0.3-0.2,0.6-0.1,0.9c0.1,0.3,0.3,0.5,0.6,0.7c0.3,0.2,0.6,0.2,0.9,0.1
			C89,47.3,89.3,47,89.4,46.7z M89,46.5c-0.1,0.2-0.3,0.4-0.4,0.5C88.3,47,88.2,47,88,47c-0.2-0.1-0.3-0.2-0.3-0.4
			c0-0.2,0-0.4,0.1-0.6c0.1-0.2,0.3-0.4,0.4-0.5c0.2-0.1,0.4-0.1,0.5,0c0.2,0.1,0.3,0.2,0.3,0.4C89.1,46.1,89.1,46.3,89,46.5z"/>
		<path class="st2" d="M83.9,58.1l0.3-1.1l-0.9-0.6l1.2-0.1l0.4-1l0.4,1l1.1,0.1L85.4,57l0.3,1.1l-1-0.6L83.9,58.1z M46.4,47.3
			l0.3-1.1l-0.9-0.6l1.2-0.1l0.4-1l0.4,1l1.1,0.1L48,46.2l0.3,1.1l-1-0.6L46.4,47.3z M48,54.8l0.2-0.7l-0.5-0.4l0.7-0.1l0.2-0.6
			l0.2,0.6l0.6,0l-0.5,0.4l0.2,0.6l-0.6-0.3L48,54.8z M50.1,53.5l0.3-1.1l-0.9-0.6l1.2-0.1l0.4-1l0.4,1l1.1,0.1l-0.9,0.7l0.3,1.1
			l-1-0.6L50.1,53.5z M53.3,51.1l0.1-0.5L53,50.3l0.5,0l0.2-0.4l0.2,0.5l0.5,0L54,50.6l0.1,0.5l-0.4-0.3L53.3,51.1z M56,55l0.2-0.7
			L55.6,54l0.7-0.1l0.2-0.6l0.2,0.6l0.6,0l-0.5,0.4l0.2,0.6l-0.6-0.3L56,55z M55.2,57.6l0.2-0.7l-0.5-0.4l0.7-0.1l0.2-0.6l0.2,0.6
			l0.6,0L56.1,57l0.2,0.6l-0.6-0.3L55.2,57.6z M58.5,60.2l0.3-1.1l-0.9-0.6l1.2-0.1l0.4-1l0.4,1l1.1,0.1l-0.9,0.7l0.3,1.1l-1-0.6
			L58.5,60.2z M61.1,50.7l0.3-1.1l-0.9-0.6l1.2-0.1l0.4-1l0.4,1l1.1,0.1l-0.9,0.7l0.3,1.1L62,50L61.1,50.7z M66.6,55.4l0.3-1.1
			l-0.9-0.6l1.2-0.1l0.4-1l0.4,1l1.1,0.1l-0.9,0.7l0.3,1.1l-1-0.6L66.6,55.4z M69.1,52.5l0.3-1.1l-0.9-0.6l1.2-0.1l0.4-1l0.4,1
			l1.1,0.1l-0.9,0.7l0.3,1.1l-1-0.6L69.1,52.5z M69.6,56.8l0.1-0.5L69.3,56l0.5,0l0.2-0.4l0.2,0.5l0.5,0l-0.4,0.3l0.1,0.5L70,56.5
			L69.6,56.8z M70,59l0.2-0.7L69.6,58l0.7-0.1l0.2-0.6l0.2,0.6l0.6,0l-0.5,0.4l0.2,0.6l-0.6-0.3L70,59z M69.7,64.2l0.2-0.7l-0.5-0.4
			l0.7-0.1l0.2-0.6l0.2,0.6l0.6,0l-0.5,0.4l0.2,0.6l-0.6-0.3L69.7,64.2z M72.4,55.5l0.3-1.1l-0.9-0.6l1.2-0.1l0.4-1l0.4,1l1.1,0.1
			l-0.9,0.7l0.3,1.1l-1-0.6L72.4,55.5z M76.5,47.2l0.2-0.7l-0.5-0.4l0.7-0.1l0.2-0.6l0.2,0.6l0.6,0l-0.5,0.4l0.2,0.6L77,46.8
			L76.5,47.2z M75.7,61.1l0.1-0.5l-0.4-0.3l0.5,0l0.2-0.4l0.2,0.5l0.5,0l-0.4,0.3l0.1,0.5l-0.4-0.3L75.7,61.1z M77,63.2l0.1-0.5
			l-0.4-0.3l0.5,0l0.2-0.4l0.2,0.5l0.5,0l-0.4,0.3l0.1,0.5l-0.4-0.3L77,63.2z M78.5,61.9l0.1-0.5l-0.4-0.3l0.5,0l0.2-0.4l0.2,0.5
			l0.5,0l-0.4,0.3l0.1,0.5l-0.4-0.3L78.5,61.9z M78.9,39l0.3-1.1l-0.9-0.6l1.2-0.1l0.4-1l0.4,1l1.1,0.1l-0.9,0.7l0.3,1.1l-1-0.6
			L78.9,39z M80.6,62.9l0.1-0.5l-0.4-0.3l0.5,0l0.1-0.4l0.2,0.4l0.4,0l-0.4,0.3l0.1,0.4l-0.4-0.2L80.6,62.9z M81.9,64l0.1-0.4
			l-0.3-0.2l0.4,0l0.1-0.3l0.1,0.3l0.4,0l-0.3,0.2l0.1,0.4l-0.3-0.2L81.9,64z M82,61.5l0.1-0.4l-0.3-0.2l0.4,0l0.1-0.3l0.1,0.3
			l0.4,0l-0.3,0.2l0.1,0.4l-0.3-0.2L82,61.5z M83.8,61.3l0.1-0.4l-0.3-0.2l0.4,0l0.1-0.3l0.1,0.3l0.4,0l-0.3,0.2l0.1,0.4l-0.3-0.2
			L83.8,61.3z M85.1,59.8l0.1-0.5l-0.4-0.3l0.5,0l0.2-0.4l0.2,0.5l0.5,0l-0.4,0.3l0.1,0.5l-0.4-0.3L85.1,59.8z M86,61.2l0.1-0.5
			l-0.4-0.3l0.5,0l0.2-0.4l0.2,0.5l0.5,0l-0.4,0.3l0.1,0.5l-0.4-0.3L86,61.2z M88,56.7l0.2-0.7l-0.5-0.4l0.7-0.1l0.2-0.6l0.2,0.6
			l0.6,0L88.9,56l0.2,0.6l-0.6-0.3L88,56.7z"/>
	</g>
</g>
</svg>
